<?xml version="1.0" encoding="UTF-8" standalone="no"?>
<svg
   xmlns:dc="http://purl.org/dc/elements/1.1/"
   xmlns:cc="http://creativecommons.org/ns#"
   xmlns:rdf="http://www.w3.org/1999/02/22-rdf-syntax-ns#"
   xmlns:svg="http://www.w3.org/2000/svg"
   xmlns="http://www.w3.org/2000/svg"
   xmlns:sodipodi="http://sodipodi.sourceforge.net/DTD/sodipodi-0.dtd"
   xmlns:inkscape="http://www.inkscape.org/namespaces/inkscape"
   width="169.73895mm"
   height="106.51345mm"
   viewBox="0 0 169.73895 106.51345"
   version="1.1"
   id="svg8"
   inkscape:version="1.0.2-2 (e86c870879, 2021-01-15)"
   sodipodi:docname="core-logo.svg">
  <defs
     id="defs2" />
  <sodipodi:namedview
     id="base"
     pagecolor="#ffffff"
     bordercolor="#666666"
     borderopacity="1.0"
     inkscape:pageopacity="0.0"
     inkscape:pageshadow="2"
     inkscape:zoom="0.5"
     inkscape:cx="417.11337"
     inkscape:cy="83.22734"
     inkscape:document-units="mm"
     inkscape:current-layer="g1349"
     inkscape:document-rotation="0"
     showgrid="false"
     showguides="true"
     inkscape:guide-bbox="true"
     inkscape:window-width="1920"
     inkscape:window-height="1027"
     inkscape:window-x="-8"
     inkscape:window-y="-8"
     inkscape:window-maximized="1" />
  <metadata
     id="metadata5">
    <rdf:RDF>
      <cc:Work
         rdf:about="">
        <dc:format>image/svg+xml</dc:format>
        <dc:type
           rdf:resource="http://purl.org/dc/dcmitype/StillImage" />
        <dc:title></dc:title>
      </cc:Work>
    </rdf:RDF>
  </metadata>
  <g
     inkscape:label="Layer 1"
     inkscape:groupmode="layer"
     id="layer1"
     transform="translate(-63.097042,-51.743333)">
    <g
       id="g1332"
       transform="matrix(1.3308685,0,0,1.3308685,-35.516576,-36.950776)">
      <g
         id="g1349"
         transform="matrix(0.7105391,0,0,0.7105391,9.5418081,5.2788335)">
        <path
           id="path1200"
           style="opacity:0.999;fill:#a32516;fill-opacity:1;stroke-width:0.264583"
           d="m 98.911481,109.87981 -8.057391,4.6545 0.01241,56.31853 h 5.29e-4 l 48.779451,28.14815 36.13268,-20.87211 -2.90784,-1.68776 v -9.28573 l -33.22796,19.19417 -37.82146,-21.82502 -0.01,-43.6671 v -9.29401 z" />
        <path
           id="path18"
           style="opacity:0.999;fill:#333333;fill-opacity:1;stroke-width:0.264583"
           d="m 139.62062,86.363928 -36.13268,20.872122 2.90784,1.68775 v 9.28574 l 33.22794,-19.194187 37.82146,21.825027 0.01,43.66711 v 9.294 l 2.9006,1.68362 8.05739,-4.6545 -0.0124,-56.31852 h -5.3e-4 z" />
        <path
           id="path901"
           style="opacity:0.999;fill:#ffffff;fill-opacity:1;stroke-width:0.496517"
           inkscape:transform-center-x="2.159279e-05"
           inkscape:transform-center-y="-2.9829198e-06"
           d="m 139.72242,91.033411 c -14.85741,8.582682 -29.71505,17.165109 -44.572467,25.747789 -0.01368,8.03856 -0.02715,16.07728 -0.04082,24.11584 l -3.348117,4.6514 1.495515,1.07642 1.846916,-2.56625 c -0.01381,8.12348 -0.02752,16.24711 -0.04134,24.3706 h 5.29e-4 v 0.004 c 14.827474,8.63294 29.654564,17.26535 44.482034,25.89816 14.85742,-8.58268 29.71505,-17.16511 44.57247,-25.74778 0.0137,-8.03858 0.0272,-16.07729 0.0408,-24.11585 l 3.34811,-4.65139 -1.49551,-1.07642 -1.84692,2.56625 c 0.0138,-8.12348 0.0275,-16.24712 0.0413,-24.3706 h -5.3e-4 v -0.004 C 169.37698,108.29877 154.5499,99.666223 139.72242,91.033411 Z m -0.006,2.911972 c 0.0879,0.0514 0.17617,0.10308 0.26407,0.15451 13.90511,8.094767 27.8088,16.191517 41.71476,24.284827 v 5.3e-4 l -5.3e-4,5.3e-4 c 0,0 5.3e-4,5.3e-4 5.3e-4,5.3e-4 -0.012,7.62714 -0.0249,15.25415 -0.0377,22.88129 l -1.81901,-2.5275 -1.49552,1.07642 3.30936,4.59817 c -0.0127,7.56927 -0.0253,15.1384 -0.0372,22.70766 -14.02177,8.09846 -28.04071,16.2016 -42.0641,24.29722 -0.0879,-0.0514 -0.17617,-0.10308 -0.26407,-0.15451 -13.90512,-8.09476 -27.8088,-16.1915 -41.714762,-24.28482 v -5.3e-4 l 5.29e-4,-5.3e-4 c 0,0 -5.29e-4,-5.3e-4 -5.29e-4,-5.3e-4 0.01199,-7.62714 0.02492,-15.25415 0.03773,-22.88129 l 1.81901,2.5275 1.495512,-1.07642 -3.309355,-4.59817 c 0.0127,-7.56926 0.02532,-15.1384 0.03721,-22.70766 14.021775,-8.09845 28.040715,-16.2016 42.064095,-24.297227 z" />
        <g
           aria-label="I-ON"
           id="text1336"
           style="font-size:19.5791px;line-height:1.25;font-family:Cunia;-inkscape-font-specification:Cunia;fill:#a32516;fill-opacity:1;stroke-width:0.407897">
          <path
             d="m 112.20987,151.11443 v -15.27166 q 0,-0.99201 0.67874,-1.61853 0.67874,-0.65264 1.59243,-0.65264 h 2.08843 q 0.31326,0 0.4699,0.18274 0.18273,0.18274 0.18273,0.4699 v 16.89019 q 0,0.26105 -0.18273,0.44379 -0.15664,0.20884 -0.4699,0.20884 h -3.70697 q -0.26105,0 -0.46989,-0.18273 -0.18274,-0.20885 -0.18274,-0.4699 z"
             style="font-size:26.1054px;fill:#a32516;fill-opacity:1;stroke-width:0.407897"
             id="path1381" />
          <path
             d="m 129.70044,142.23859 q 0.23495,0.18274 0.23495,0.52211 v 2.45391 q 0,0.31326 -0.23495,0.52211 -0.18274,0.20884 -0.54821,0.20884 h -8.01436 q -0.33937,0 -0.52211,-0.20884 -0.23495,-0.23495 -0.23495,-0.52211 v -0.70485 q 0,-0.496 0.23495,-0.93979 0.23495,-0.4699 0.60043,-0.80927 0.39158,-0.33937 0.86147,-0.52211 0.4699,-0.20884 0.9659,-0.20884 h 6.10867 q 0.36547,0 0.54821,0.20884 z"
             style="font-size:26.1054px;fill:#a32516;fill-opacity:1;stroke-width:0.407897"
             id="path1383" />
          <path
             d="m 140.71691,152.08033 q -3.70696,0 -5.8476,-1.80127 -2.14065,-1.80128 -2.27117,-5.2994 -0.0261,-0.73095 -0.0261,-2.24506 0,-1.51412 0.0261,-2.27117 0.10442,-3.44592 2.27117,-5.2994 2.19285,-1.87959 5.8476,-1.87959 3.62866,0 5.7954,1.87959 2.19286,1.85348 2.29728,5.2994 0.0522,1.51411 0.0522,2.27117 0,0.78316 -0.0522,2.24506 -0.13053,3.49812 -2.27117,5.2994 -2.11454,1.80127 -5.82151,1.80127 z m 0,-3.91581 q 1.35749,0 2.16675,-0.80927 0.80927,-0.83537 0.86148,-2.53222 0.0522,-1.51412 0.0522,-2.16675 0,-0.65264 -0.0522,-2.11454 -0.0522,-1.69685 -0.86148,-2.50612 -0.80926,-0.83537 -2.16675,-0.83537 -1.38358,0 -2.19285,0.83537 -0.80927,0.80927 -0.86148,2.50612 -0.0261,0.73095 -0.0261,2.11454 0,1.40969 0.0261,2.16675 0.0522,1.69685 0.86148,2.53222 0.80927,0.80927 2.19285,0.80927 z"
             style="font-size:26.1054px;fill:#a32516;fill-opacity:1;stroke-width:0.407897"
             id="path1385" />
          <path
             d="m 151.83777,151.08832 v -15.27166 q 0,-0.91368 0.65264,-1.59242 0.65263,-0.67875 1.61853,-0.67875 h 0.86148 q 0.28716,0 0.67874,0.13053 0.39158,0.10442 0.80927,0.67874 1.54022,2.4017 2.76717,4.3335 0.75706,1.17474 1.17474,1.87959 0.44379,0.67874 0.83538,1.27916 0.39158,0.57432 0.65263,0.99201 0.26105,0.41768 0.31327,0.496 0,0.0522 0.10442,0.0522 0.13052,0 0.13052,-0.13053 v -7.44004 q 0,-1.01811 0.70485,-1.64464 0.70485,-0.62653 1.59243,-0.62653 h 1.67074 q 0.28716,0 0.4699,0.18274 0.18274,0.23495 0.18274,0.49601 v 16.83798 q 0,0.23495 -0.18274,0.4699 -0.20884,0.20884 -0.4699,0.20884 h -2.94991 q -0.57431,0 -0.88758,-0.496 -1.56632,-2.4017 -2.81938,-4.30739 -0.75706,-1.14864 -1.20085,-1.82738 -0.44379,-0.70485 -0.83537,-1.27917 -0.39158,-0.60042 -0.65264,-0.992 -0.26105,-0.41769 -0.31326,-0.49601 -0.0783,-0.0783 -0.13053,-0.0783 -0.13053,0 -0.13053,0.13053 v 8.69309 q 0,0.28716 -0.20884,0.4699 -0.20884,0.18274 -0.4699,0.18274 h -3.31538 q -0.23495,0 -0.4438,-0.20884 -0.20884,-0.20885 -0.20884,-0.4438 z"
             style="font-size:26.1054px;fill:#a32516;fill-opacity:1;stroke-width:0.407897"
             id="path1387" />
        </g>
        <g
           aria-label="Core"
           id="text1336-7"
           style="font-size:19.5791px;line-height:1.25;font-family:Cunia;-inkscape-font-specification:Cunia;fill:#a32516;fill-opacity:1;stroke-width:0.407897">
          <path
             d="m 208.92564,152.02381 q -3.73307,0 -5.87371,-1.80127 -2.11454,-1.80127 -2.24507,-5.27329 -0.0261,-0.70485 -0.0261,-2.29728 0,-1.61853 0.0261,-2.34948 0.13053,-3.39371 2.27117,-5.22108 2.16675,-1.85349 5.84761,-1.85349 2.32338,0 4.15076,0.75706 1.85349,0.75706 2.92381,2.19285 1.07032,1.4358 1.12253,3.3937 0,0.23495 -0.18274,0.39159 -0.15663,0.15663 -0.39158,0.15663 h -3.70697 q -0.36547,0 -0.54821,-0.13053 -0.15663,-0.15663 -0.28716,-0.54821 -0.36547,-1.27917 -1.12253,-1.77517 -0.73095,-0.52211 -1.95791,-0.52211 -2.94991,0 -3.05433,3.28928 -0.0261,0.70485 -0.0261,2.16675 0,1.4619 0.0261,2.21896 0.10442,3.28928 3.05433,3.28928 1.20085,0 1.95791,-0.52211 0.78316,-0.52211 1.12253,-1.77516 0.10442,-0.39159 0.28716,-0.52211 0.18274,-0.15664 0.54821,-0.15664 h 3.70697 q 0.23495,0 0.39158,0.15664 0.18274,0.15663 0.18274,0.39158 -0.0522,1.9579 -1.12253,3.3937 -1.07032,1.4358 -2.92381,2.19285 -1.82738,0.75706 -4.15076,0.75706 z"
             style="font-size:26.1054px;fill:#a32516;fill-opacity:1;stroke-width:0.407897"
             id="path1390" />
          <path
             d="m 227.35604,152.02381 q -3.70697,0 -5.84761,-1.80127 -2.14064,-1.80127 -2.27117,-5.2994 -0.0261,-0.73095 -0.0261,-2.24506 0,-1.51412 0.0261,-2.27117 0.10442,-3.44592 2.27117,-5.2994 2.19285,-1.87959 5.84761,-1.87959 3.62865,0 5.7954,1.87959 2.19285,1.85348 2.29727,5.2994 0.0522,1.51411 0.0522,2.27117 0,0.78316 -0.0522,2.24506 -0.13052,3.49813 -2.27117,5.2994 -2.11453,1.80127 -5.8215,1.80127 z m 0,-3.91581 q 1.35748,0 2.16675,-0.80927 0.80927,-0.83537 0.86148,-2.53222 0.0522,-1.51411 0.0522,-2.16675 0,-0.65263 -0.0522,-2.11454 -0.0522,-1.69685 -0.86148,-2.50611 -0.80927,-0.83538 -2.16675,-0.83538 -1.38359,0 -2.19285,0.83538 -0.80927,0.80926 -0.86148,2.50611 -0.0261,0.73095 -0.0261,2.11454 0,1.40969 0.0261,2.16675 0.0522,1.69685 0.86148,2.53222 0.80926,0.80927 2.19285,0.80927 z"
             style="font-size:26.1054px;fill:#a32516;fill-opacity:1;stroke-width:0.407897"
             id="path1392" />
          <path
             d="m 253.85301,151.55391 q -0.15663,0.15664 -0.39158,0.15664 h -3.65476 q -0.75705,0 -1.07032,-0.70485 l -2.63664,-5.22108 q -0.23495,-0.41769 -0.70485,-0.41769 h -3.44591 q 0.67874,0 1.04421,0.4699 0.39159,0.4699 0.39159,0.91369 v 4.30739 q 0,0.31327 -0.18274,0.496 -0.18274,0.15664 -0.496,0.15664 h -3.55034 q -0.28716,0 -0.4699,-0.18274 -0.18273,-0.18274 -0.18273,-0.4699 v -15.27166 q 0,-0.9659 0.67874,-1.61853 0.67874,-0.65264 1.59243,-0.65264 h 5.53434 q 1.4619,0 2.76717,0.33937 1.33138,0.31327 2.32338,1.01811 0.99201,0.70485 1.59243,1.85349 0.60043,1.12253 0.60043,2.74106 0,1.61854 -0.67874,2.84549 -0.65264,1.22696 -2.08844,2.01012 -0.20884,0.15663 -0.20884,0.33937 0,0.18274 0.0522,0.28716 l 3.26318,5.92592 q 0.0783,0.15664 0.0783,0.28716 0,0.18274 -0.15663,0.39158 z m -5.2994,-12.1129 q 0,-1.07032 -0.62652,-1.61854 -0.60043,-0.57432 -1.64465,-0.57432 h -4.49012 q 0.62653,0 1.01811,0.4699 0.39158,0.44379 0.39158,0.9398 v 2.08843 q 0,0.33937 0.23495,0.57432 0.23494,0.23494 0.57432,0.23494 h 2.27116 q 1.04422,0 1.64465,-0.5221 0.62652,-0.52211 0.62652,-1.59243 z"
             style="font-size:26.1054px;fill:#a32516;fill-opacity:1;stroke-width:0.407897"
             id="path1394" />
          <path
             d="m 256.54182,151.05791 v -15.27166 q 0,-0.992 0.67874,-1.61853 0.67874,-0.65264 1.59243,-0.65264 h 10.651 q 0.26106,0 0.4699,0.20884 0.20884,0.20885 0.20884,0.4699 v 2.58444 q 0,0.28716 -0.20884,0.44379 -0.18274,0.18274 -0.4699,0.18274 h -9.659 q 0.62653,0 1.01812,0.44379 0.41768,0.44379 0.41768,0.9659 v 1.09642 q 0,0.28716 0.20885,0.54822 0.20884,0.26105 0.60042,0.26105 h 5.66487 q 0.67874,0 0.67874,0.67874 v 2.34949 q 0,0.67874 -0.67874,0.67874 h -7.90994 q 0.60043,0 1.01812,0.41769 0.41768,0.41768 0.41768,0.93979 v 1.22695 q 0,0.28716 0.20885,0.54822 0.23494,0.26105 0.60042,0.26105 h 7.62278 q 0.28716,0 0.46989,0.20884 0.20885,0.18274 0.20885,0.4699 v 2.55833 q 0,0.28716 -0.20885,0.4699 -0.20884,0.18274 -0.46989,0.18274 h -12.47839 q -0.28715,0 -0.46989,-0.18274 -0.18274,-0.18274 -0.18274,-0.4699 z"
             style="font-size:26.1054px;fill:#a32516;fill-opacity:1;stroke-width:0.407897"
             id="path1396" />
        </g>
      </g>
    </g>
  </g>
</svg>
